HIERARCHY
ROOT pelvis
{
  OFFSET 0 100 0
  CHANNELS 6 Xposition Yposition Zposition Zrotation Xrotation Yrotation
  JOINT pelvis_right_femur
  {
    OFFSET -10.78128 -3.44521 -0.5502486
    CHANNELS 3 Zrotation Xrotation Yrotation
    JOINT right_femur_tibia
    {
      OFFSET -0.8047443 -44.0398 -0.1307829
      CHANNELS 3 Zrotation Xrotation Yrotation
      JOINT right_tibia_foot
      {
        OFFSET 3.006224 -47.83518 -5
        CHANNELS 3 Zrotation Xrotation Yrotation
        End Site
        {
          OFFSET 0 -5 15
        }
      }
    }
  }
  JOINT pelvis_left_femur
  {
    OFFSET 10.78128 -3.44521 -0.5502486
    CHANNELS 3 Zrotation Xrotation Yrotation
    JOINT left_femur_tibia
    {
      OFFSET 0.8047443 -44.0398 -0.1307829
      CHANNELS 3 Zrotation Xrotation Yrotation
      JOINT left_tibia_foot
      {
        OFFSET -4.370144 -48.10324 -4.275266
        CHANNELS 3 Zrotation Xrotation Yrotation
        End Site
        {
          OFFSET 0 -5 15
        }
      }
    }
  }
  JOINT pelvis_spine1
  {
    OFFSET 0 6.468898 -3.129235
    CHANNELS 3 Zrotation Xrotation Yrotation
    JOINT spine1
    {
      OFFSET 0 23.15396 4.99043
      CHANNELS 3 Zrotation Xrotation Yrotation
      JOINT spine2
      {
        OFFSET 0 20.79997 -5.064912
        CHANNELS 3 Zrotation Xrotation Yrotation
        JOINT neck
        {
          OFFSET 0 14.38658 9.616178
          CHANNELS 3 Zrotation Xrotation Yrotation
          End Site
          {
            OFFSET 0 20 0
          }
        }
      }
      JOINT right_manubrium
      {
        OFFSET -5.722621 16.35077 3.967754
        CHANNELS 3 Zrotation Xrotation Yrotation
        JOINT right_clavicle
        {
          OFFSET -13.16364 1.694482 -4.693211
          CHANNELS 3 Zrotation Xrotation Yrotation
          JOINT right_humerus
          {
            OFFSET -28.5034 -0.3100689 -2.792744
            CHANNELS 3 Zrotation Xrotation Yrotation
            JOINT right_radius
            {
              OFFSET -25.15693 0.02248979 -1.271978
              CHANNELS 3 Zrotation Xrotation Yrotation
              End Site
              {
                OFFSET -15 0 0
              }
            }
          }
        }
      }
      JOINT left_manubrium
      {
        OFFSET 5.722621 16.35077 3.967754
        CHANNELS 3 Zrotation Xrotation Yrotation
        JOINT left_clavicle
        {
          OFFSET 13.16364 1.694482 -4.693211
          CHANNELS 3 Zrotation Xrotation Yrotation
          JOINT left_humerus
          {
            OFFSET 29.39168 -1.063119 -2.237045
            CHANNELS 3 Zrotation Xrotation Yrotation
            JOINT left_radius
            {
              OFFSET 24.59957 -0.9528479 0.9047498
              CHANNELS 3 Zrotation Xrotation Yrotation
              End Site
              {
                OFFSET 15 -0 -0
              }
            }
          }
        }
      }
    }
  }
}
MOTION
Frames: 11
Frame Time: 0.0416666666667
0 103.5113 0 0.07416026 -1.441998 0.1214833 0.3881795 -9.355283 7.851742 -0 37.56593 -0 -8.044316 -14.1384 -2.303831 -5.960486 9.383511 -22.4856 -0 10.2675 -0 14.23876 -18.45368 27.93258 -2.497744 -6.002914 4.218394 1.161054 9.820009 -8.059911 1.69063 24.10412 6.96136 2.646523 -23.62419 9.759814 9.149305 -14.94236 15.51442 81.2001 30.55612 -19.18667 -0 0 20.43722 -8.941346 12.73861 -0.1077814 9.33471 -22.59296 0.6634704 -93.539 11.00245 16.76478 -0 0 4.390131 11.35895 18.82151 -10.93724
0.3175075 103.4712 1.697507 0.06808674 -1.440579 0.1279285 1.375154 -13.8661 7.218749 -0 42.15523 -0 -8.37578 -13.47543 -3.627751 -6.038678 10.71655 -22.18027 -0 9.75844 -0 13.63108 -19.17078 27.5793 -2.931741 -5.30127 3.751111 1.306721 9.75111 -8.402326 1.827954 23.91067 7.023986 2.799206 -24.12079 9.955695 8.962215 -15.13182 15.24658 81.72118 30.87234 -19.69851 -0 0 19.85692 -8.971101 12.71723 0.1120704 9.162456 -22.67617 0.4165102 -93.11199 12.04276 16.71182 -0 0 3.005961 11.34267 17.9645 -10.14752
0.6188181 103.4896 3.535011 0.06069708 -1.494742 -0.1385134 2.200694 -18.41554 5.907085 -0 43.47176 -0 -8.603894 -12.68966 -4.57767 -6.152883 12.1996 -21.74097 -0 9.217745 -0 12.88035 -19.89142 27.1199 -3.458884 -4.244844 3.466684 1.626568 9.610716 -8.64035 1.971372 23.62772 7.103894 2.965704 -24.61037 10.15974 8.713809 -15.33095 15.02766 82.30924 31.19592 -20.24305 -0 0 19.23424 -8.957595 12.71268 0.3343019 9.246839 -22.80782 0.09870924 -92.68858 13.02756 16.4432 -0 0 1.257524 11.31874 17.08472 -9.4555
0.8179835 103.3028 5.590491 0.05400837 -1.521919 -0.2768696 2.841303 -22.40315 4.541408 -0 41.56469 -0 -8.646847 -11.38992 -4.996844 -6.181444 13.75591 -21.21374 -0 8.787905 -0 12.08524 -20.72104 26.47335 -3.841262 -3.007472 3.211246 1.946151 9.407198 -8.899815 2.032475 23.15481 7.220975 3.08603 -25.12502 10.31966 8.354651 -15.48048 14.75456 83.0492 31.50241 -20.8436 -0 0 18.60084 -8.902801 12.72343 0.5642307 9.415465 -22.99822 -0.1905564 -92.38006 13.94614 15.95223 0 0 -0.8226253 11.40891 16.16593 -8.904146
0.966028 102.8696 7.989078 0.05104261 -1.446637 0.08366494 3.510211 -26.41859 3.697952 -0 37.46648 -0 -8.566714 -9.656951 -4.949853 -6.105008 15.27143 -20.68558 -0 8.622125 -0 11.29756 -21.71354 25.59078 -4.029974 -1.720837 2.924189 2.188255 9.135916 -9.172968 2.136392 22.47475 7.292222 3.221978 -25.67048 10.43493 7.893988 -15.48886 14.41817 83.93672 31.78078 -21.51529 -0 0 17.91766 -8.843672 12.75303 0.8157224 9.56362 -23.33447 -0.4396609 -92.0981 14.80359 15.23519 0 0 -3.19956 11.59509 15.22929 -8.476101
1.111433 102.1542 10.77761 0.04986094 -1.317044 0.7070435 3.775962 -29.38074 2.990441 -0 31.84735 -0 -8.493851 -7.797286 -4.43986 -5.995984 16.85331 -20.07774 -0 8.757276 -0 10.44149 -22.74929 24.41682 -4.224076 -0.2998608 2.485558 2.504746 8.697378 -9.617951 2.307081 21.86377 7.290239 3.393262 -26.06539 10.49125 7.355325 -15.51545 13.97158 84.82051 32.05087 -22.19437 -0 0 17.16461 -8.798622 12.80052 1.092707 9.90722 -23.89147 -0.7357511 -91.53484 15.64523 14.31122 0 0 -5.876969 11.78266 14.29828 -8.162451
1.28846 101.2529 13.77101 0.04905256 -1.141421 1.556652 3.959292 -31.90997 2.294275 -0 25.34715 -0 -8.436501 -6.371001 -3.765524 -5.830444 18.3762 -19.33054 -0 9.240458 -0 9.386092 -23.6594 22.89108 -4.288936 1.133836 1.995321 2.822495 8.432623 -10.15034 2.450914 21.14041 7.265798 3.582916 -26.40464 10.42287 6.914842 -15.67656 13.56499 85.5871 32.33154 -22.73648 -0 0 16.33061 -8.805515 12.8648 1.395308 9.962943 -23.91077 -1.294101 -91.35361 16.36789 13.66562 0 0 -8.23599 11.86036 13.3515 -7.80045
1.426305 100.4632 17.56668 0.04652998 -0.9346971 2.561091 4.119178 -33.27876 1.815285 -0 20.67032 -0 -8.619636 -5.350848 -3.168248 -5.458626 19.94169 -18.68719 -0 10.56124 -0 7.900186 -24.10577 20.93886 -4.080815 2.037469 1.748429 3.130569 8.041519 -10.42261 2.465497 20.64696 7.324615 3.743323 -26.65473 10.33231 6.49963 -15.48158 12.88674 86.46772 32.56552 -23.55137 -0 0 15.23506 -8.833749 12.9527 1.705323 10.14823 -24.35609 -1.335569 -91.05537 16.91295 12.76389 0 0 -10.99835 12.12022 12.41168 -7.548115
1.480617 99.62229 21.81806 0.04125617 -0.7264777 3.576267 4.319062 -33.53399 1.438362 -0 18.95353 -0 -9.09419 -4.642817 -3.016534 -5.00514 20.95614 -18.14367 -0 13.0069 -0 5.916987 -23.66958 18.63831 -3.674599 2.574541 1.47482 3.182246 7.866333 -10.6717 2.311711 20.33486 7.494379 3.837958 -26.77184 10.23147 6.176353 -15.2879 12.31847 87.39103 32.77753 -24.25444 -0 0 14.17348 -8.912735 13.06207 2.091317 9.918721 -24.54596 -1.432557 -90.75523 17.44859 12.40567 0 0 -13.00381 12.13709 11.59071 -7.054014
1.534349 99.32478 26.66774 0.03180452 -0.4861008 4.751409 4.328465 -31.98109 1.035501 -0 20.04567 -0 -9.751025 -4.280791 -3.094626 -4.501851 21.56093 -17.29023 -0 16.91857 -0 3.397788 -21.69687 16.04657 -2.935179 2.638962 1.107265 3.158766 7.738748 -10.90568 1.953176 20.2073 7.692119 3.813546 -26.82199 9.996535 5.959181 -15.05285 11.83037 88.2626 32.98878 -24.88583 -0 0 13.05634 -9.073407 13.19247 2.532675 9.369491 -24.54014 -1.575427 -90.74633 17.94859 12.49723 0 0 -14.48994 12.00725 10.89721 -6.363114
1.596604 99.38062 32.30104 0.02555419 -0.3710645 5.314717 4.510394 -29.96726 0.8170424 -0 21.79494 -0 -10.39842 -4.750754 -3.124839 -4.585914 21.05744 -16.16936 -0 23.08291 -0 0.5969571 -17.71629 13.48672 -2.157083 2.202392 0.9675413 2.976237 7.795525 -10.9271 1.466791 20.12188 7.871924 3.663984 -26.72469 9.651464 5.730349 -14.82726 11.44804 88.98593 33.20915 -25.29408 -0 0 12.086 -9.320248 13.34164 3.053087 8.662988 -24.13889 -1.65602 -90.89452 18.40339 13.2362 0 0 -15.23975 11.67406 10.28462 -5.479737
